<svg version="1.1" xmlns="http://www.w3.org/2000/svg" xmlns:xlink="http://www.w3.org/1999/xlink" width="700" height="700" viewBox="610,122.5,700,700"><defs><clipPath id="clip-1"><rect x="808" y="331.9072" width="300" height="291.18559" id="clip-1" fill="none"/></clipPath></defs><g id="document" fill="#ffffff" fill-rule="nonzero" stroke="#000000" stroke-width="0" stroke-linecap="butt" stroke-linejoin="miter" stroke-miterlimit="10" stroke-dasharray="" stroke-dashoffset="0" font-family="none" font-weight="none" font-size="none" text-anchor="none" style="mix-blend-mode: normal"><rect x="610" y="87.5" transform="scale(1,1.4)" width="700" height="500" id="Shape 1 1" vector-effect="non-scaling-stroke"/></g><g fill="none" fill-rule="nonzero" stroke="none" stroke-width="1" stroke-linecap="none" stroke-linejoin="none" stroke-miterlimit="10" stroke-dasharray="" stroke-dashoffset="0" font-family="none" font-weight="none" font-size="none" text-anchor="none" style="mix-blend-mode: normal"><g><g id="stage"><g id="layer1 1"><g clip-path="url(#clip-1)" id="Group 1" stroke="none" stroke-linecap="butt" stroke-linejoin="miter"><g id="Group 1" fill="#2858a8"><path d="M937.72065,334.37768c20.77705,-0.2028 41.55424,-0.4056 62.96085,-0.61454c52.34643,3.29611 52.34643,3.29611 80.94978,31.89946c-0.33523,37.20667 -0.33523,37.20667 -5.36313,80.44694c-2.37823,21.51459 -2.37823,21.51459 -4.80451,43.46366c-2.04628,16.53689 -2.04628,16.53689 -4.13404,33.40786c9.43911,0 18.87821,0 28.60336,0c16.08939,67.93297 16.08939,67.93297 0,100.11174c-33.03688,0 -66.07375,0 -100.11174,0c0,-9.43911 0,-18.87821 0,-28.60336c-12.22293,0.1659 -24.44586,0.3318 -37.03906,0.50285c-15.79949,0.129 -31.59898,0.258 -47.87715,0.39101c-15.76259,0.1659 -31.52519,0.3318 -47.76532,0.50285c-38.93861,-1.3967 -38.93861,-1.3967 -53.24028,-15.69838c-1.42101,-38.11597 -1.85493,-76.27099 -1.78771,-114.41342c-0.0369,-20.94309 -0.0738,-41.88604 -0.1117,-63.46369c3.39593,-91.09096 48.07495,-67.57142 129.72065,-67.93297zM881.40779,394.26595c0,47.19554 0,94.39107 0,143.01678c42.47598,0 84.95197,0 128.7151,0c0,-47.19554 0,-94.39107 0,-143.01678c-42.47598,0 -84.95197,0 -128.7151,0z" id="CompoundPath 1"/></g></g><path d="M655,275v-77h259v77z" id="Path 1" fill="none" stroke="none" stroke-linecap="round" stroke-linejoin="round"/><path d="M1065,332" id="Path 1" fill="none" stroke="#000000" stroke-linecap="round" stroke-linejoin="round"/><path d="M822,341v-46h282v46z" id="Path 1" fill="#ffffff" stroke="#ffffff" stroke-linecap="round" stroke-linejoin="round"/><path d="M1053,536v-248h110v248z" id="Path 1" fill="#ffffff" stroke="#ffffff" stroke-linecap="round" stroke-linejoin="round"/><path d="M1053,635v-49h58v49z" id="Path 1" fill="#ffffff" stroke="#ffffff" stroke-linecap="round" stroke-linejoin="round"/><path d="M1098,606v-73h104v73z" id="Path 1" fill="#ffffff" stroke="#ffffff" stroke-linecap="round" stroke-linejoin="round"/><path d="M781,610.5v-284.5h54v284.5z" id="Path 1" fill="#ffffff" stroke="#ffffff" stroke-linecap="round" stroke-linejoin="round"/><path d="M830,633v-47h179v47z" id="Path 1" fill="#ffffff" stroke="#ffffff" stroke-linecap="round" stroke-linejoin="round"/></g></g></g></g></svg>